<svg width="86" height="69" viewBox="0 0 86 69" fill="none" xmlns="http://www.w3.org/2000/svg">
<path d="M1.98318 46.4122C2.0029 46.1475 2.13197 45.9029 2.33891 45.7381C2.54585 45.5733 2.81163 45.5035 3.07144 45.5456C3.4324 45.6705 3.77911 45.8336 4.10577 46.0321C4.74669 46.4599 5.3624 46.9195 5.96843 47.3957C10.1174 50.6471 14.87 52.7367 19.7605 54.4957C23.4022 55.7458 27.243 56.3099 31.0918 56.1599C33.1072 56.1106 35.1297 55.9699 37.1359 55.7326C40.6114 55.3238 43.8803 54.0647 47.0117 52.6709C51.119 50.739 54.9541 48.2645 58.4157 45.3128C62.1302 42.21 65.5417 38.7558 68.6032 34.9979C71.3501 31.7428 73.88 28.3081 76.1761 24.7164C76.5499 24.1569 76.9593 23.6223 77.4018 23.1161C77.7257 22.8879 78.1605 22.9065 78.4622 23.1616C78.6481 23.3671 78.769 23.6238 78.8098 23.8992C78.8252 24.1868 78.7643 24.4736 78.6332 24.7301C78.3757 25.2517 78.0837 25.7554 77.7592 26.2377C74.8499 30.4638 71.9287 34.6874 68.4705 38.4867C66.8597 40.2782 65.2124 42.068 63.4768 43.7523C61.946 45.2302 60.3413 46.6282 58.6689 47.9409C55.2055 50.7505 51.3989 53.0999 47.3431 54.931C42.2061 57.182 36.6627 58.3278 31.0685 58.295C28.4735 58.2378 25.8841 58.0373 23.3118 57.6945C21.2767 57.4604 19.4224 56.6073 17.5374 55.9275C12.3677 54.0973 7.53427 51.4229 3.23008 48.0108C2.85724 47.7253 2.51372 47.403 2.20462 47.0485C2.08534 46.8555 2.00974 46.6382 1.98318 46.4122Z" fill="#E0E0E0"/>
<path d="M83.8701 25.93C83.4769 27.2297 83.0792 28.5223 82.692 29.8232C82.3308 31.0305 81.9932 32.2427 81.632 33.45C80.1727 38.3192 78.1918 42.9226 74.8151 46.8012C74.4938 47.1634 74.1501 47.5047 73.7861 47.8231C73.4457 48.0183 73.0226 47.9855 72.7173 47.7404C72.412 47.4953 72.286 47.0871 72.3992 46.7095C72.5401 46.3504 72.7397 46.0176 72.9898 45.7247C76.2416 41.9994 78.1881 37.5872 79.5953 32.9054C80.8196 28.8235 82.0734 24.748 82.4214 20.4488C82.4548 20.0653 82.4418 19.6793 82.3828 19.2993C82.316 19.1309 82.167 19.01 81.9894 18.98C81.5372 19.1006 81.0938 19.253 80.6625 19.4361C74.0361 22.0533 67.527 24.987 60.6485 26.9676C59.2766 27.4267 57.8365 27.6412 56.3932 27.6014C56.1098 27.5812 55.8307 27.5219 55.5635 27.4251C55.1829 27.2943 54.9497 26.9085 55.0084 26.5069C55.0638 26.2321 55.2165 25.9867 55.438 25.8167C55.6681 25.6422 55.9445 25.5411 56.2316 25.5263C59.0737 25.4357 61.6902 24.4101 64.326 23.5251C67.9769 22.2913 71.556 20.8748 75.1048 19.3403C77.401 18.3458 79.7952 17.5273 82.0367 16.4716C82.5675 16.2491 83.117 16.0752 83.6785 15.9522C84.1825 15.8874 84.6484 16.228 84.7431 16.7305C84.8177 17.0107 84.8535 17.3001 84.8493 17.5905C84.4754 20.3334 84.4642 23.1347 83.8701 25.93Z" fill="#E0E0E0"/>
</svg>
