<svg width="32" height="32" viewBox="0 0 32 32" fill="none" xmlns="http://www.w3.org/2000/svg">
    <g clip-path="url(#clip0)">
        <path d="M16 11C24.2843 11 31 8.76142 31 6C31 3.23858 24.2843 1 16 1C7.71573 1 1 3.23858 1 6C1 8.76142 7.71573 11 16 11Z" stroke="#05BAAC" stroke-width="2" stroke-linejoin="round"/>
        <path d="M12 17.82C5.66 17.24 1 15.3 1 13" stroke="#05BAAC" stroke-width="2" stroke-linejoin="round"/>
        <path d="M9 24.42C4.24 23.58 1 21.92 1 20V6" stroke="#05BAAC" stroke-width="2" stroke-linejoin="round"/>
        <path d="M31 6V11" stroke="#05BAAC" stroke-width="2" stroke-linejoin="round"/>
        <path d="M23 31C27.4183 31 31 27.4183 31 23C31 18.5817 27.4183 15 23 15C18.5817 15 15 18.5817 15 23C15 27.4183 18.5817 31 23 31Z" stroke="#05BAAC" stroke-width="2" stroke-linejoin="round"/>
        <path d="M19 24L21 26L27 20" stroke="#05BAAC" stroke-width="2" stroke-linejoin="round"/>
    </g>
    <defs>
        <clipPath id="clip0">
            <rect width="32" height="32" fill="white"/>
        </clipPath>
    </defs>
</svg>
