<svg width="63" height="76" viewBox="0 0 63 76" fill="none" xmlns="http://www.w3.org/2000/svg">
<path d="M31.5 0L0 13.8182V34.5455C0 53.7182 13.44 71.6473 31.5 76C49.56 71.6473 63 53.7182 63 34.5455V13.8182L31.5 0Z" fill="#C83E34" fill-opacity="0.9"/>
<path d="M27.6 48.2076C27.6 47.7702 27.6873 47.337 27.8569 46.9329C28.0265 46.5287 28.2751 46.1615 28.5885 45.8521C28.9019 45.5428 29.2739 45.2974 29.6834 45.13C30.0929 44.9626 30.5318 44.8765 30.975 44.8765C31.4182 44.8765 31.8571 44.9626 32.2665 45.13C32.676 45.2974 33.0481 45.5428 33.3615 45.8521C33.6749 46.1615 33.9235 46.5287 34.0931 46.9329C34.2627 47.337 34.35 47.7702 34.35 48.2076C34.35 49.0911 33.9944 49.9384 33.3615 50.5631C32.7285 51.1878 31.8701 51.5388 30.975 51.5388C30.0799 51.5388 29.2214 51.1878 28.5885 50.5631C27.9556 49.9384 27.6 49.0911 27.6 48.2076ZM27.9307 28.204C27.8858 27.7837 27.9309 27.3588 28.063 26.9569C28.1952 26.5549 28.4115 26.1849 28.6979 25.8708C28.9843 25.5567 29.3345 25.3055 29.7256 25.1336C30.1167 24.9616 30.5401 24.8728 30.9682 24.8728C31.3964 24.8728 31.8197 24.9616 32.2109 25.1336C32.602 25.3055 32.9521 25.5567 33.2385 25.8708C33.5249 26.1849 33.7413 26.5549 33.8734 26.9569C34.0056 27.3588 34.0507 27.7837 34.0057 28.204L32.8245 39.8864C32.7848 40.3453 32.572 40.7728 32.2283 41.0844C31.8846 41.3959 31.4349 41.5688 30.9682 41.5688C30.5016 41.5688 30.0519 41.3959 29.7081 41.0844C29.3644 40.7728 29.1517 40.3453 29.112 39.8864L27.9307 28.204Z" fill="white"/>
</svg>
