<svg width="18" height="18" viewBox="0 0 18 18" fill="none" xmlns="http://www.w3.org/2000/svg">
<path fill-rule="evenodd" clip-rule="evenodd" d="M15.4668 7.05601L17.6351 7.46252C17.8373 7.50087 18.0015 7.6978 18 7.90441V10.0919C18 10.2977 17.8365 10.4947 17.6351 10.5334L15.4687 10.9395C15.3343 11.3874 15.1582 11.8166 14.9389 12.2201L16.1805 14.0342C16.2959 14.2043 16.2729 14.4586 16.1265 14.6045L14.5803 16.1506C14.4351 16.2969 14.1797 16.3207 14.01 16.2045L12.1853 14.9559C11.7817 15.1719 11.3521 15.3457 10.9053 15.4775L10.5006 17.6348C10.4619 17.8369 10.2657 18 10.0594 18H7.87134C7.66546 18 7.4685 17.8369 7.43016 17.6348L7.02173 15.4559C6.59246 15.3241 6.18106 15.1536 5.79349 14.944L3.99152 16.1774C3.82174 16.2924 3.56671 16.2693 3.42114 16.1234L1.8742 14.5766C1.72863 14.4318 1.7048 14.1764 1.82096 14.0067L3.05405 12.2041C2.83885 11.8054 2.66461 11.381 2.53244 10.9388L0.365607 10.5326C0.163816 10.4939 0 10.297 0 10.0911V7.90366C0 7.6978 0.163816 7.50087 0.365607 7.46252L2.53393 7.05638C2.66424 6.62343 2.83438 6.20797 3.04437 5.81635L1.79713 3.99371C1.68134 3.82396 1.7048 3.56895 1.85037 3.4234L3.39769 1.87624C3.54289 1.73068 3.79829 1.70686 3.96806 1.82301L5.77971 3.06229C6.17138 2.84935 6.58725 2.67662 7.02099 2.54409L7.42978 0.365941C7.46813 0.163799 7.66508 0 7.87097 0H10.0587C10.2649 0 10.4615 0.163799 10.4995 0.365941L10.9038 2.52287C11.3561 2.65577 11.7899 2.83186 12.1972 3.0515L14.0327 1.7962C14.2017 1.68043 14.4567 1.70388 14.6023 1.84944L16.1492 3.39659C16.2948 3.54178 16.319 3.79715 16.2029 3.96691L14.9482 5.80108C15.1623 6.19681 15.335 6.61747 15.4668 7.05601ZM5 8.9994C5 11.2091 6.79087 13 8.9994 13C11.2079 13 13 11.2091 13 8.9994C13 6.79126 11.2087 5 8.9994 5C6.79087 5 5 6.79126 5 8.9994Z" fill="#FFF"/>
</svg>
