<svg width="590" height="78" viewBox="0 0 590 78" fill="none" xmlns="http://www.w3.org/2000/svg">
<path d="M24.3832 36.3563H52.7756V49.4765H0V41.6C0 23.3345 36.9899 24.3832 36.9899 16.4521C36.9899 13.0983 34.7723 11.7328 27.0487 11.7328C17.1076 11.7328 15.3378 14.8462 15.3378 19.4672H0.688235C0.688235 3.55042 10.2908 0 26.863 0C45.7622 0 53.4748 4.45714 53.4748 15.3815C53.4748 25.8034 42.5832 29.0588 33.8437 31.6916C30.8832 32.5765 25.2025 34.6849 24.3832 36.3563ZM62.7168 50.8092C62.7168 72.6908 81.2446 78 112.335 78C140.389 78 159.572 73.8815 159.572 53.6277C159.572 34.4555 141.045 32.8277 111.145 31.2C89.0445 29.9 84.5 28.8185 84.5 22.963C84.5 17.3261 89.0555 15.4908 108.228 15.4908C128.482 15.4908 136.828 17.5445 136.828 25.8908H156.328C156.328 7.14454 138.991 0 110.391 0C81.9983 0 65 5.30924 65 21.9908C65 39 78.1092 44.2 111.145 45.7185C135.735 46.9093 140.072 47.9908 140.072 54.2723C140.072 60.2261 133.9 62.5093 113.428 62.5093C88.7277 62.5093 82.2277 58.8277 82.2277 50.8092H62.7168ZM284.58 1.08151H258.252L226.517 54.6L194.771 1.08151H168.443V76.9076H187.943V24.9076L219.471 76.9076H233.552L265.08 24.9076V76.9076H284.58V1.08151ZM374.444 76.9185H396.008L356.79 1.08151H330.462L291.353 76.9076H312.808L320.936 60.7613H366.327L374.444 76.9185ZM328.19 46.2538L343.681 15.4908L359.062 46.2538H328.19ZM491.411 28.9277C491.411 12.0277 479.602 1.09244 462.374 1.09244H402.792V76.9185H422.292V56.6538H453.711L465.946 76.9076H488.909L474.937 54.3706C485.119 50.3723 491.411 41.2723 491.411 28.9277ZM422.292 17.4462H456.956C462.8 17.4462 471.9 17.4462 471.9 28.9277C471.9 40.3 462.8 40.3 456.956 40.3H422.292V17.4462ZM589.916 1.08151H496.753V17.4353H533.59V76.9076H553.09V17.4462H589.916V1.08151Z" fill="#04C0B2"/>
</svg>
