<svg xmlns="http://www.w3.org/2000/svg" width="264" height="195" viewBox="0 0 264 195"><g><g><path fill="#04baac" d="M9.549 39.957C73.115 13.136 144.517 8.063 211.088 26.519c13.95 3.868 27.675 8.662 40.93 14.482l-2.691-10.261-28.356 45.509 8.47-3.446C178.537 51.954 121.5 47.659 67.988 60.368c-12.024 2.856-23.82 6.592-35.317 11.118-4.46 1.755-7.1 6.457-4.483 11.018l22.436 39.119c1.535 2.677 5.412 4.568 8.47 3.446a206.86 206.86 0 0 1 142.757.076c9.073 3.34 12.986-11.152 3.988-14.464-48.311-17.787-102.403-17.811-150.732-.076l8.469 3.447L41.14 74.933 36.658 85.95c49.414-19.453 104.107-23.173 155.574-9.782 11.313 2.943 22.405 6.669 33.22 11.099 3.087 1.263 6.863-.867 8.47-3.447l28.357-45.509c1.964-3.152.957-8.66-2.69-10.262C193.839-.824 119.687-7.376 50.002 10.483c-15.166 3.887-30.017 8.924-44.44 15.009-3.716 1.569-6.432 4.963-5.24 9.227.983 3.507 5.458 6.828 9.227 5.238z"/></g><g><path fill="#04baac" d="M187.221 140.56c-37.213-11.586-77.535-11.63-114.78-.152-4.61 1.422-6.977 6.729-4.483 11.018l13.866 23.838c1.704 2.93 5.24 4.243 8.47 3.446a164.041 164.041 0 0 1 78.243-.1l-4.482-11.018-9.559 15.341c2.824-1.147 5.647-2.297 8.47-3.445-22.294-5.258-45.413-5.197-67.674.209-9.376 2.276-5.405 16.745 3.988 14.464a128.128 128.128 0 0 1 59.698-.21c3.33.786 6.66-.541 8.471-3.446l9.558-15.34c2.514-4.036.141-9.89-4.482-11.018a180.772 180.772 0 0 0-86.219.1l8.47 3.446c-4.622-7.946-9.243-15.893-13.866-23.839l-4.48 11.018a180.312 180.312 0 0 1 106.804.152c9.237 2.876 13.19-11.6 3.987-14.464z"/></g></g></svg>