<svg width="16" height="16" viewBox="0 0 16 12" fill="none" xmlns="http://www.w3.org/2000/svg">
    <path d="M14.5455 0.352941C13.7382 0.105882 12.8509 0 12 0C10.5818 0 9.05455 0.282353 8 1.05882C6.94545 0.282353 5.41818 0 4 0C2.58182 0 1.05455 0.282353 0 1.05882V11.4C0 11.5765 0.181818 11.7529 0.363636 11.7529C0.436364 11.7529 0.472727 11.7176 0.545455 11.7176C1.52727 11.2588 2.94545 10.9412 4 10.9412C5.41818 10.9412 6.94545 11.2235 8 12C8.98182 11.4 10.7636 10.9412 12 10.9412C13.2 10.9412 14.4364 11.1529 15.4545 11.6824C15.5273 11.7176 15.5636 11.7176 15.6364 11.7176C15.8182 11.7176 16 11.5412 16 11.3647V1.05882C15.5636 0.741176 15.0909 0.529412 14.5455 0.352941ZM14.5455 9.88235C13.7455 9.63529 12.8727 9.52941 12 9.52941C10.7636 9.52941 8.98182 9.98824 8 10.5882V2.47059C8.98182 1.87059 10.7636 1.41176 12 1.41176C12.8727 1.41176 13.7455 1.51765 14.5455 1.76471V9.88235Z" fill="#EAEAEA"/>
    <path d="M14.5455 9.89063C13.7455 9.64357 12.8727 9.50001 12 9.50001C10.7636 9.50001 8.98182 9.90001 8 10.5V2.50001C8.98182 1.90001 10.8092 1.39063 12.0455 1.39063C12.5455 1.39063 13.7455 1.52638 14.5455 1.77344V9.89063Z" fill="#04BAAC"/>
</svg>
