<svg width="20" height="20" viewBox="0 0 20 20" fill="none" xmlns="http://www.w3.org/2000/svg">
    <path d="M19.1564 2.5H4.08116L3.748 0.666667C3.66471 0.25 3.24827 0 2.83182 0C2.74853 0 0.832889 0 0.832889 0C0.333156 0 0 0.333333 0 0.833333C0 1.33333 0.333156 1.66667 0.832889 1.66667H2.2488L2.66524 4.16667L4.16444 14.1667C4.24773 14.5833 4.4976 15 4.99733 15H17.4907C17.9904 15 18.3236 14.5 18.3236 14.1667L19.9893 3.33333C20.0726 2.91667 19.6562 2.5 19.1564 2.5ZM16.8244 13.3333H5.66364L4.33102 4.16667H18.0737L16.8244 13.3333Z" fill="#E4E4E4"/>
    <path d="M14.5755 15.8333C13.4095 15.8333 12.4933 16.7499 12.4933 17.9166C12.4933 19.0833 13.4095 19.9999 14.5755 19.9999C15.7416 19.9999 16.6577 19.0833 16.6577 17.9166C16.6577 16.7499 15.7416 15.8333 14.5755 15.8333ZM14.5755 19.1666C13.9092 19.1666 13.3262 18.5833 13.3262 17.9166C13.3262 17.2499 13.9092 16.6666 14.5755 16.6666C15.2418 16.6666 15.8248 17.2499 15.8248 17.9166C15.8248 18.5833 15.2418 19.1666 14.5755 19.1666Z" fill="#1DC6B9"/>
    <path d="M7.07954 15.8333C5.91349 15.8333 4.99731 16.7499 4.99731 17.9166C4.99731 19.0833 5.91349 19.9999 7.07954 19.9999C8.24558 19.9999 9.16176 19.0833 9.16176 17.9166C9.16176 16.7499 8.24558 15.8333 7.07954 15.8333ZM7.07954 19.1666C6.41323 19.1666 5.8302 18.5833 5.8302 17.9166C5.8302 17.2499 6.41323 16.6666 7.07954 16.6666C7.74585 16.6666 8.32887 17.2499 8.32887 17.9166C8.32887 18.5833 7.74585 19.1666 7.07954 19.1666Z" fill="#1DC6B9"/>
    <path d="M16.4913 6.66659L16.5746 5.83325H5.91357L5.99686 6.66659H16.4913Z" fill="#1DC6B9"/>
    <path d="M6.16337 8.33333H16.3246L16.4079 7.5H6.08008L6.16337 8.33333Z" fill="#1DC6B9"/>
    <path d="M6.41324 10.0001H16.0748L16.158 9.16675H6.32996L6.41324 10.0001Z" fill="#1DC6B9"/>
    <path d="M6.57987 11.6666H15.9082L15.9915 10.8333H6.49658L6.57987 11.6666Z" fill="#1DC6B9"/>
</svg>
