<svg width="78" height="100" viewBox="0 0 78 100" fill="none" xmlns="http://www.w3.org/2000/svg">
<path d="M55.125 48.625V37.9375H61.875V58.375V58.9963L62.3143 59.4357L76.5 73.6213V73.9375H68.25H66.75V75.4375V98.3125H45.375V89.1875V87.6875H43.875H34.125H32.625V89.1875V98.3125H11.25V75.4375V73.9375H9.75H1.5V73.6213L39 36.1213L52.5643 49.6857L55.125 52.2463V48.625Z" stroke="#E8E8E8" stroke-width="3"/>
<path fill-rule="evenodd" clip-rule="evenodd" d="M51.8458 67.0377L50.8089 66.4145L50.4745 66.2136L50.3223 66.5787L50.2 66.8725C49.7135 68.0418 48.7463 68.7681 47.6761 68.7681C46.6057 68.7681 45.6386 68.0418 45.1523 66.8727L45.0299 66.5788L44.8779 66.2134L44.5435 66.4145L43.5065 67.0377L43.2478 67.1932L43.3653 67.4757L43.4876 67.7696C44.2805 69.6757 45.8854 70.8599 47.6761 70.8599C49.4667 70.8599 51.0715 69.6757 51.8644 67.7694L51.9869 67.4757L52.1047 67.1932L51.8458 67.0377ZM32.5611 66.4144L32.2266 66.2134L32.0745 66.5785L31.9522 66.8724C31.4656 68.0416 30.4986 68.768 29.4283 68.768C28.3579 68.768 27.3909 68.0416 26.9045 66.8725L26.7821 66.5787L26.6303 66.2133L26.2957 66.4144L25.2587 67.0375L25 67.1931L25.1175 67.4756L25.2398 67.7694C26.0327 69.6755 27.6375 70.8598 29.4283 70.8598C31.2189 70.8598 32.8237 69.6755 33.6166 67.7693L33.7391 67.4756L33.8569 67.1931L33.598 67.0375L32.5611 66.4144Z" fill="#E8E8E8"/>
<path opacity="0.8" fill-rule="evenodd" clip-rule="evenodd" d="M64.3448 30.6287V31.7514H59.6982V30.8719L62.3508 27.8404H59.7661V26.7177H64.2581V27.5971L61.6055 30.6287H64.3448Z" fill="#E8E8E8"/>
<path fill-rule="evenodd" clip-rule="evenodd" d="M51.6465 34.911V36.0338H46.9999V35.1543L49.6525 32.1227H47.0678V31H51.5598V31.8795L48.9072 34.911H51.6465Z" fill="#E8E8E8"/>
<path opacity="0.4" fill-rule="evenodd" clip-rule="evenodd" d="M59.3102 18.1461L59.311 20.1317L51.5675 20.135L51.5668 18.5796L55.9851 13.2161L51.6776 13.2178L51.6769 11.2321L59.1631 11.2291L59.1636 12.7844L54.7451 18.148L59.3102 18.1461Z" fill="#E8E8E8"/>
<path opacity="0.4" fill-rule="evenodd" clip-rule="evenodd" d="M72.0882 6.91699L72.089 8.90257L64.3455 8.90588L64.3448 7.35048L68.7631 1.98697L64.4556 1.98871L64.4549 0.00296433L71.9411 0L71.9416 1.55522L67.5231 6.91891L72.0882 6.91699Z" fill="#E8E8E8"/>
<path fill-rule="evenodd" clip-rule="evenodd" d="M38.5489 76.668C37.6932 76.668 36.9999 77.3616 36.9999 78.2169C36.9999 79.0723 37.6932 79.7657 38.5489 79.7657C39.4042 79.7657 40.0976 79.0723 40.0976 78.2169C40.0976 77.3616 39.4042 76.668 38.5489 76.668" fill="#E8E8E8"/>
</svg>
