<svg xmlns="http://www.w3.org/2000/svg" width="304" height="286" fill="none" style=""><rect id="backgroundrect" width="100%" height="100%" x="0" y="0" fill="none" stroke="none"/>














<g class="currentLayer" style=""><title>Layer 1</title><rect x="24.739900588989258" y="103.92400360107422" width="3.9016199111938477" height="10.924500465393066" rx="0.7803230285644531" fill="white" stroke="#CCCDC9" stroke-width="0.520216" id="svg_1"/><rect x="42.687198638916016" y="92.73989868164062" width="8.5835599899292" height="11.444700241088867" rx="0.7803230285644531" fill="white" stroke="#CCCDC9" stroke-width="0.520216" id="svg_2"/><rect x="53.61199951171875" y="92.73989868164062" width="8.5835599899292" height="11.444700241088867" rx="0.7803230285644531" fill="white" stroke="#CCCDC9" stroke-width="0.520216" id="svg_3"/><rect x="26.520000457763672" y="94.52030181884766" width="249.78399658203125" height="190.47999572753906" rx="9.664420127868652" fill="#2f333d" stroke="#D0D0D0" stroke-width="2" id="svg_4" class="" fill-opacity="1"/><rect x="32.80289840698242" y="100.54299926757812" width="237.21800231933594" height="177.91400146484375" rx="3.3814001083374023" fill="#2f333d" stroke="#ffffff" stroke-width="0.520216" id="svg_5" class="" fill-opacity="1" stroke-opacity="1"/><path fill-rule="evenodd" clip-rule="evenodd" d="M29.552 190.8C29.0492 190.8 28.6416 190.393 28.6416 189.89C28.6416 189.387 29.0492 188.98 29.552 188.98C30.0548 188.98 30.4624 189.387 30.4624 189.89C30.4624 190.393 30.0548 190.8 29.552 190.8Z" fill="#E6E6E1" id="svg_6"/><rect x="121" y="275" width="62.425899505615234" height="1.3005399703979492" rx="0.6502699851989746" fill="#CCCCCC" id="svg_7"/><path fill-rule="evenodd" clip-rule="evenodd" d="M186.331 173.129L183.653 171.519L182.79 171L182.397 171.943L182.081 172.702C180.824 175.722 178.327 177.598 175.563 177.598C172.799 177.598 170.301 175.722 169.045 172.703L168.729 171.944L168.336 171L167.473 171.519L164.795 173.129L164.126 173.53L164.43 174.26L164.746 175.019C166.793 179.941 170.938 183 175.563 183C180.187 183 184.332 179.941 186.379 175.018L186.696 174.26L187 173.53L186.331 173.129ZM136.527 171.519L135.663 171L135.27 171.943L134.955 172.702C133.698 175.722 131.201 177.598 128.436 177.598C125.672 177.598 123.175 175.722 121.919 172.703L121.602 171.944L121.21 171L120.346 171.519L117.668 173.129L117 173.53L117.303 174.26L117.619 175.019C119.667 179.941 123.812 183 128.436 183C133.061 183 137.205 179.941 139.253 175.018L139.569 174.26L139.874 173.53L139.205 173.129L136.527 171.519Z" fill="#E8E8E8" id="svg_8"/><path opacity="0.8" fill-rule="evenodd" clip-rule="evenodd" d="M217 79.1004V82H205V79.7287L211.85 71.8996H205.175V69H216.776V71.2713L209.926 79.1004H217Z" fill="#E8E8E8" id="svg_10"/><path fill-rule="evenodd" clip-rule="evenodd" d="M211 127.1V130H199V127.729L205.85 119.9H199.175V117H210.776V119.271L203.926 127.1H211Z" fill="#E8E8E8" id="svg_11"/><path opacity="0.4" fill-rule="evenodd" clip-rule="evenodd" d="M203.998 46.8636L204 51.9914L184.002 52L184 47.9831L195.411 34.1315L184.286 34.136L184.284 29.0077L203.618 29L203.619 33.0165L192.208 46.8685L203.998 46.8636Z" fill="#E8E8E8" id="svg_12"/><path opacity="0.4" fill-rule="evenodd" clip-rule="evenodd" d="M236.998 17.8636L237 22.9914L217.002 23L217 18.9831L228.411 5.13148L217.286 5.13598L217.284 0.00765556L236.618 0L236.619 4.01647L225.208 17.8685L236.998 17.8636Z" fill="#E8E8E8" id="svg_13"/><path fill-rule="evenodd" clip-rule="evenodd" d="M153 198C150.79 198 149 199.791 149 202C149 204.209 150.79 206 153 206C155.209 206 157 204.209 157 202C157 199.791 155.209 198 153 198" fill="#E8E8E8" id="svg_14"/></g></svg>