<svg width="20" height="20" viewBox="0 0 12 15" fill="none" xmlns="http://www.w3.org/2000/svg">
    <path d="M6 15c.825 0 1.5-.692 1.5-1.539h-3C4.5 14.308 5.175 15 6 15zm4.5-4.615V6.538c0-2.361-1.223-4.338-3.375-4.861v-.523C7.125.515 6.622 0 6 0S4.875.515 4.875 1.154v.523C2.73 2.2 1.5 4.169 1.5 6.538v3.847L0 11.923v.77h12v-.77l-1.5-1.538zm-1.5.769H3V6.538c0-1.907 1.133-3.461 3-3.461S9 4.63 9 6.538v4.616z" fill="#E4E4E4"/>
    <path d="M6 15c.825 0 1.5-.692 1.5-1.539h-3C4.5 14.308 5.175 15 6 15zm4.5-4.615V6.538c0-2.361-1.223-4.338-3.375-4.861v-.523C7.125.515 6.622 0 6 0S4.875.515 4.875 1.154v.523C2.73 2.2 1.5 4.169 1.5 6.538v3.847L0 11.923v.77h12v-.77l-1.5-1.538zm-1.5.769H3V6.538c0-1.907 1.133-3.461 3-3.461S9 4.63 9 6.538v4.616z" fill="#E4E4E4"/>
    <path d="M6 15c.825 0 1.5-.654 1.5-1.5h-3c0 .846.675 1.5 1.5 1.5z" fill="#04C0B2"/>
    <path d="M6 15c.825 0 1.5-.654 1.5-1.5h-3c0 .846.675 1.5 1.5 1.5z" fill="#04C0B2"/>
</svg>