<svg width="25" height="25" viewBox="0 0 25 25" fill="none" xmlns="http://www.w3.org/2000/svg">
<path d="M12.5 0C5.56818 0 0 5.56818 0 12.5C0 19.4318 5.56818 25 12.5 25C19.4318 25 25 19.4318 25 12.5C25 5.56818 19.4318 0 12.5 0ZM20.1136 14.5455C20 15 19.5455 15.2273 19.0909 15.1136L12.7273 13.8636C12.5 13.8636 12.2727 13.6364 12.0455 13.5227C11.5909 13.2955 11.3636 12.9545 11.3636 12.5L11.5909 3.40909C11.5909 2.84091 12.0455 2.5 12.5 2.5C12.9545 2.5 13.4091 2.95455 13.4091 3.40909L13.5227 11.25L19.4318 13.2955C20 13.4091 20.2273 13.9773 20.1136 14.5455Z" fill="#787878"/>
</svg>