<svg width="36" height="36" viewBox="0 0 36 26" fill="none" xmlns="http://www.w3.org/2000/svg">
    <path d="M27.8182 13L22.9091 13L29.4545 19.5L36 13L31.0909 13C31.0909 5.8175 25.2327 -4.70652e-07 18 -7.86805e-07C15.4309 -8.99104e-07 13.0418 0.747499 11.0291 2.015L13.4182 4.3875C14.7764 3.65625 16.3473 3.25 18 3.25C23.4164 3.25 27.8182 7.62125 27.8182 13ZM24.9709 23.985L22.5818 21.6125C21.2073 22.3275 19.6527 22.75 18 22.75C12.5836 22.75 8.18182 18.3788 8.18182 13L13.0909 13L6.54545 6.5L-5.68248e-07 13L4.90909 13C4.90909 20.1825 10.7673 26 18 26C20.5691 26 22.9582 25.2525 24.9709 23.985Z" fill="#08AEEA"/>
</svg>
