<svg width="10" height="10" viewBox="0 0 10 10" fill="none" xmlns="http://www.w3.org/2000/svg">
<path d="M8.13447 1.84116L8.4876 2.21951L8.85355 1.85355L9.5 1.20711V3.875H6.83211L7.97855 2.72855L8.33211 2.375L7.97855 2.02145C7.21161 1.2545 6.21408 0.75 5 0.75C2.66136 0.75 0.75 2.66136 0.75 5C0.75 7.33864 2.66136 9.25 5 9.25C6.71892 9.25 8.18623 8.20584 8.83887 6.75H9.11225C8.42405 8.3506 6.83918 9.5 5 9.5C2.52614 9.5 0.5 7.47386 0.5 5C0.5 2.52614 2.52614 0.5 5 0.5C6.23662 0.5 7.35418 1.00513 8.13447 1.84116Z" fill="#04BAAC" stroke="#04BAAC"/>
</svg>
