<svg width="21" height="22" viewBox="0 0 21 22" fill="none" xmlns="http://www.w3.org/2000/svg">
<path d="M19.962 3.60946C19.6513 3.29844 19.2827 3.14292 18.8571 3.14292H17.2859V1.9643C17.2859 1.42423 17.0934 0.961769 16.7087 0.577096C16.3239 0.192422 15.8617 0 15.3214 0H14.5358C13.9956 0 13.5332 0.192423 13.1485 0.577139C12.7637 0.961769 12.5714 1.42427 12.5714 1.96434V3.14296H7.85734V1.96434C7.85734 1.42427 7.66492 0.961812 7.2802 0.577139C6.89557 0.192423 6.43315 0 5.89287 0H5.10722C4.56706 0 4.1046 0.192423 3.71989 0.577139C3.33526 0.961769 3.14279 1.42427 3.14279 1.96434V3.14296H1.5715C1.14581 3.14296 0.77756 3.29849 0.466545 3.6095C0.155529 3.92047 0 4.28889 0 4.71446V20.4287C0 20.854 0.155529 21.2223 0.466545 21.5335C0.777517 21.8444 1.14576 22 1.5715 22H18.8568C19.2824 22 19.651 21.8445 19.9617 21.5335C20.2727 21.2225 20.4283 20.854 20.4283 20.4287V4.71442C20.4282 4.28872 20.2728 3.92047 19.962 3.60946ZM5.10709 20.4285H1.5715V16.8927H5.10709V20.4285ZM5.10709 16.1072H1.5715V12.1788H5.10709V16.1072ZM5.10709 11.3927H1.5715V7.8572H5.10709V11.3927ZM4.83104 5.77624C4.75325 5.69846 4.71442 5.60657 4.71442 5.50006V1.96447C4.71442 1.85809 4.75325 1.76594 4.83104 1.68829C4.90882 1.6105 5.00071 1.57167 5.10722 1.57167H5.89287C5.99925 1.57167 6.09139 1.6105 6.16905 1.68829C6.24684 1.76599 6.28575 1.85809 6.28575 1.96447V5.50006C6.28575 5.60661 6.24667 5.6985 6.16905 5.77624C6.09135 5.85403 5.99937 5.89286 5.89287 5.89286H5.10722C5.00084 5.8929 4.90882 5.85403 4.83104 5.77624ZM9.82138 20.4285H5.89274V16.8927H9.82138V20.4285ZM9.82138 16.1072H5.89274V12.1788H9.82138V16.1072ZM9.82138 11.3927H5.89274V7.8572H9.82138V11.3927ZM14.5358 20.4285H10.6072V16.8927H14.5358V20.4285ZM14.5358 16.1072H10.6072V12.1788H14.5358V16.1072ZM14.5358 11.3927H10.6072V7.8572H14.5358V11.3927ZM14.2595 5.77624C14.1818 5.69846 14.1431 5.60657 14.1431 5.50006V1.96447C14.1431 1.85809 14.1818 1.76594 14.2595 1.68829C14.3372 1.6105 14.4293 1.57167 14.5358 1.57167H15.3214C15.4279 1.57167 15.5199 1.6105 15.5977 1.68829C15.6755 1.76599 15.7141 1.85809 15.7141 1.96447V5.50006C15.7141 5.60661 15.6753 5.6985 15.5977 5.77624C15.52 5.85403 15.4279 5.89286 15.3214 5.89286H14.5358C14.4293 5.8929 14.3369 5.85403 14.2595 5.77624ZM18.8568 20.4285H15.3211V16.8927H18.8568V20.4285ZM18.8568 16.1072H15.3211V12.1788H18.8568V16.1072ZM18.8568 11.3927H15.3211V7.8572H18.8568V11.3927Z" fill="#04BAAC"/>
</svg>
