<svg width="21" height="21" viewBox="0 0 21 21" fill="none" xmlns="http://www.w3.org/2000/svg">
    <path d="M10.5003 0C10.5002 0 10.5001 0 10.5 0C10.4999 0 10.4999 0 10.4999 0C10.4998 0 10.4998 0 10.4998 0C7.60118 0.000123046 4.97715 1.17455 3.07737 3.07347C3.07671 3.07413 3.07597 3.07466 3.07532 3.07532C3.07462 3.07602 3.07409 3.07675 3.07339 3.07745C1.17664 4.97535 0.00295309 7.59585 0.000451167 10.4906C0.000451167 10.4937 0 10.4968 0 10.4999C0 10.5029 0.000410152 10.5058 0.000451167 10.5087C0.00250193 12.9779 0.860211 15.3173 2.40045 17.182C2.56669 17.3833 2.81405 17.4998 3.07507 17.4998H17.9245C18.1856 17.4998 18.4329 17.3833 18.5992 17.182C20.1416 15.3146 21.0001 12.9718 21.0001 10.4999C21.0001 4.70108 16.2991 0 10.5003 0ZM17.5004 15.7498H3.49925C2.54438 14.4793 1.95249 12.9747 1.79372 11.3749H4.37497C4.85821 11.3749 5.24994 10.9831 5.24994 10.4999C5.24994 10.0166 4.85821 9.62491 4.37497 9.62491H1.79376C1.96844 7.86515 2.66451 6.25896 3.7252 4.96267L4.31254 5.55001C4.65424 5.89171 5.20827 5.89171 5.54997 5.55001C5.89167 5.20831 5.89167 4.65428 5.54997 4.31258L4.96259 3.7252C6.25888 2.66439 7.86503 1.96824 9.62487 1.79347V4.37501C9.62487 4.85825 10.0166 5.24998 10.4998 5.24998C10.9831 5.24998 11.3748 4.85825 11.3748 4.37501V1.79339C13.1346 1.96807 14.7409 2.66422 16.0373 3.72504L15.4497 4.31258C15.108 4.65428 15.108 5.20831 15.4497 5.55001C15.7914 5.89171 16.3455 5.89171 16.6872 5.55001L17.2747 4.96243C18.3357 6.25879 19.0319 7.86511 19.2067 9.62491H16.6248C16.1415 9.62491 15.7498 10.0166 15.7498 10.4999C15.7498 10.9831 16.1415 11.3749 16.6248 11.3749H19.2067C19.0478 12.9743 18.4556 14.479 17.5004 15.7498Z" fill="#E4E4E4"/>
    <path d="M11.4745 13.9498L13.9489 9L9 11.4753L11.4745 13.9498Z" fill="#1DC6B9"/>
</svg>
