<svg width="20" height="20" viewBox="0 0 20 20" fill="none" xmlns="http://www.w3.org/2000/svg">
<path fill-rule="evenodd" clip-rule="evenodd" d="M16.9571 7.73633L19.3342 8.18204C19.5558 8.22408 19.7358 8.44 19.7342 8.66653V11.0649C19.7342 11.2906 19.555 11.5065 19.3342 11.549L16.9591 11.9943C16.8118 12.4853 16.6187 12.9559 16.3783 13.3984L17.7395 15.3873C17.866 15.5739 17.8407 15.8527 17.6803 16.0127L15.9852 17.7078C15.826 17.8682 15.546 17.8943 15.3599 17.7669L13.3595 16.398C12.9171 16.6347 12.446 16.8253 11.9562 16.9698L11.5126 19.3351C11.4701 19.5567 11.255 19.7355 11.0289 19.7355H8.63012C8.40441 19.7355 8.18849 19.5567 8.14645 19.3351L7.69869 16.9461C7.22808 16.8016 6.77706 16.6147 6.35216 16.3849L4.37665 17.7371C4.19053 17.8633 3.91094 17.838 3.75134 17.678L2.05543 15.982C1.89583 15.8233 1.86971 15.5433 1.99706 15.3571L3.3489 13.3808C3.11298 12.9437 2.92196 12.4784 2.77706 11.9935L0.401549 11.5482C0.180324 11.5057 0.000732422 11.2898 0.000732422 11.0641V8.66571C0.000732422 8.44 0.180324 8.22408 0.401549 8.18204L2.77869 7.73674C2.92155 7.26204 3.10808 6.80653 3.33828 6.37714L1.97094 4.37878C1.844 4.19265 1.86971 3.91306 2.0293 3.75347L3.72563 2.05714C3.88481 1.89755 4.16481 1.87143 4.35094 1.99878L6.33706 3.35755C6.76645 3.12408 7.22237 2.93469 7.69788 2.78939L8.14604 0.401226C8.18808 0.179592 8.404 0 8.62971 0H11.0281C11.2542 0 11.4697 0.179592 11.5113 0.401226L11.9546 2.76612C12.4505 2.91183 12.926 3.1049 13.3726 3.34571L15.3848 1.96939C15.5701 1.84245 15.8497 1.86816 16.0093 2.02776L17.7052 3.72408C17.8648 3.88327 17.8913 4.16327 17.764 4.34939L16.3885 6.36041C16.6232 6.79428 16.8126 7.25551 16.9571 7.73633ZM5.75293 9.86746C5.75293 12.1413 7.59579 13.9842 9.86844 13.9842C12.1411 13.9842 13.9852 12.1413 13.9852 9.86746C13.9852 7.59522 12.1419 5.75195 9.86844 5.75195C7.59579 5.75195 5.75293 7.59522 5.75293 9.86746Z" fill="#E4E4E4"/>
</svg>
