<svg width="13" height="18" viewBox="0 0 13 18" fill="none" xmlns="http://www.w3.org/2000/svg">
<path fill-rule="evenodd" clip-rule="evenodd" d="M2.39806 17.9771C1.92844 17.9771 1.54227 17.5947 1.52262 17.1102L0.938477 4.37744H12.0375L11.4533 17.1102C11.4337 17.5947 11.0475 17.9771 10.5779 17.9771H2.39806ZM8.69423 7.17259C8.49766 7.17259 8.33833 7.33714 8.33833 7.54003V14.8145C8.33833 15.0176 8.49774 15.182 8.69423 15.182H9.26346C9.46004 15.182 9.61936 15.0175 9.61936 14.8145V7.54003C9.61936 7.3371 9.45991 7.17259 9.26346 7.17259H8.69423ZM5.84749 7.54003C5.84749 7.33714 6.00681 7.17259 6.20335 7.17259H6.77258C6.96903 7.17259 7.12844 7.3371 7.12844 7.54003V14.8145C7.12844 15.0175 6.96916 15.182 6.77258 15.182H6.20335C6.00686 15.182 5.84749 15.0176 5.84749 14.8145V7.54003ZM3.71242 7.17259C3.51589 7.17259 3.35656 7.33714 3.35656 7.54003V14.8145C3.35656 15.0176 3.51593 15.182 3.71242 15.182H4.28169C4.47823 15.182 4.63755 15.0175 4.63755 14.8145V7.54003C4.63755 7.3371 4.47818 7.17259 4.28169 7.17259H3.71242Z" fill="#BEBEBE"/>
<path d="M12.4268 0.926098H8.65314V0.189462C8.65314 0.0848508 8.57101 0 8.46965 0H4.50695C4.40564 0 4.3235 0.0848508 4.3235 0.189462V0.926054H0.549836C0.246148 0.926054 0 1.18025 0 1.49382V3.27741H12.9766V1.49387C12.9766 1.1803 12.7305 0.926098 12.4268 0.926098Z" fill="#BEBEBE"/>
</svg>
