<svg fill="none" xmlns="http://www.w3.org/2000/svg" viewBox="0 0 40 40"><g clip-path="url(#clip0)" fill="#04C0B2"><path d="M23.3947 40h-6.3158c-1.4736 0-3.1578-1.2631-3.1578-3.7895v-4.421c0-2.1053-1.0527-4-2.7369-5.4737C7.39474 23.3684 5.5 19.1579 5.5 14.5263 5.71053 6.52632 12.2368.210526 20.0263 0c4 0 7.7895 1.47368 10.5263 4.21053 2.7369 2.73684 4.4211 6.52627 4.4211 10.52627 0 4.4211-1.8947 8.6316-5.4737 11.3685-1.8947 1.4737-2.9474 3.7894-2.9474 5.8947v4.8421c0 1.6842-1.4736 3.1579-3.1579 3.1579zM20.2368 2.10526c-6.7368 0-12.42101 5.68421-12.63154 12.42104 0 4 1.68421 7.7895 4.84214 10.1053 2.3158 1.8947 3.5789 4.421 3.5789 7.1579v4.421c0 .4211 0 1.6842 1.0526 1.6842h6.3158c.6316 0 1.0527-.421 1.0527-1.0526V32c0-2.7368 1.4737-5.6842 3.7894-7.5789 2.9474-2.3158 4.6316-5.8948 4.6316-9.6843 0-3.3684-1.2631-6.52627-3.7894-9.05259-2.3158-2.31579-5.4737-3.57895-8.8422-3.57895z"/><path d="M25.5001 33.6842H14.9738c-.6316 0-1.0527-.421-1.0527-1.0526 0-.6316.4211-1.0526 1.0527-1.0526h10.5263c.6316 0 1.0526.421 1.0526 1.0526 0 .6316-.421 1.0526-1.0526 1.0526zM28.6579 15.7895c-.6316 0-1.0527-.4211-1.0527-1.0526 0-4-3.3684-7.36846-7.3684-7.36846-.6315 0-1.0526-.42105-1.0526-1.05263 0-.63157.4211-1.05263 1.0526-1.05263 5.2632 0 9.4737 4.21052 9.4737 9.47372 0 .6315-.4211 1.0526-1.0526 1.0526z"/></g><defs><clipPath id="clip0"><path fill="#fff" d="M0 0h40v40H0z"/></clipPath></defs></svg>
