<svg xmlns="http://www.w3.org/2000/svg" viewBox="0 0 512 512" fill="#04C0B2"  width="35" height="35">
  <path d="M390.3 105.9H251.1c-6.8 0-12.3 5.5-12.3 12.3s5.5 12.3 12.3 12.3h139.2c6.8 0 12.3-5.5 12.3-12.3s-5.5-12.3-12.3-12.3z" data-original="#000000" class="active-path"/>
  <circle cx="137.5" cy="118.1" r="15.8" data-original="#000000" class="active-path"/>
  <path d="M390.3 243.8H251.1c-6.8 0-12.3 5.5-12.3 12.3s5.5 12.3 12.3 12.3h139.2c6.8 0 12.3-5.5 12.3-12.3s-5.5-12.3-12.3-12.3z" data-original="#000000" class="active-path"/>
  <circle cx="137.5" cy="256" r="15.8" data-original="#000000" class="active-path"/>
  <path d="M500.9 404v-20.3c0-24.4-12.4-46-31.2-58.8 18.8-12.8 31.2-34.4 31.2-58.8v-20.3c0-24.4-12.4-46-31.2-58.8 18.8-12.8 31.2-34.4 31.2-58.8V108c0-39.2-31.9-71-71.1-71H82.2C43 37 11.1 68.8 11.1 108v20.3c0 24.4 12.4 46 31.2 58.8-18.8 12.8-31.2 34.4-31.2 58.8v20.3c0 24.4 12.4 46 31.2 58.8-18.8 12.8-31.2 34.4-31.2 58.8V404c0 39.2 31.9 71.1 71.1 71.1h347.7c39.1-.1 71-31.9 71-71.1zM35.6 128.3V108c0-25.7 20.9-46.5 46.6-46.5h347.7c25.7 0 46.6 20.9 46.6 46.5v20.3c0 25.7-20.9 46.6-46.6 46.6H82.2c-25.7-.1-46.6-21-46.6-46.6zm0 137.8v-20.3c0-25.7 20.9-46.6 46.6-46.6h347.7c25.7 0 46.6 20.9 46.6 46.6v20.3c0 25.7-20.9 46.6-46.6 46.6H82.2c-25.7 0-46.6-20.9-46.6-46.6zm0 137.9v-20.3c0-25.7 20.9-46.5 46.6-46.5h347.7c25.7 0 46.6 20.9 46.6 46.5V404c0 25.7-20.9 46.6-46.6 46.6H82.2c-25.7-.1-46.6-20.9-46.6-46.6z" data-original="#000000" class="active-path"/>
  <path d="M390.3 381.6H251.1c-6.8 0-12.3 5.5-12.3 12.3s5.5 12.3 12.3 12.3h139.2c6.8 0 12.3-5.5 12.3-12.3s-5.5-12.3-12.3-12.3z" data-original="#000000" class="active-path"/>
  <circle cx="137.5" cy="393.9" r="15.8" data-original="#000000" class="active-path"/>
</svg>
