<svg width="27" height="24" viewBox="0 0 27 24" fill="none" xmlns="http://www.w3.org/2000/svg">
<path d="M1.82956 19.0881V23.4608C1.82956 23.7269 2.04578 23.9486 2.31744 23.9486H5.69937C5.96549 23.9486 6.18726 23.7324 6.18726 23.4608V15.7683L3.7312 18.2235C3.21005 18.7389 2.54475 19.0382 1.82956 19.0881Z" fill="#F4F4F4"/>
<path d="M7.87268 15.7129V23.4608C7.87268 23.7269 8.0889 23.9486 8.36057 23.9486H11.7425C12.0086 23.9486 12.2304 23.7324 12.2304 23.4608V18.8996C11.4597 18.883 10.739 18.5782 10.1957 18.0351L7.87268 15.7129Z" fill="#F4F4F4"/>
<path d="M13.9158 18.4175V23.4608C13.9158 23.7269 14.132 23.9486 14.4037 23.9486H17.7856C18.0517 23.9486 18.2735 23.7324 18.2735 23.4608V14.1555L14.3981 18.0295C14.2485 18.1792 14.0877 18.3066 13.9158 18.4175Z" fill="#E3E3E3"/>
<path d="M23.9895 8.43604L19.9589 12.4652V23.4609C19.9589 23.7269 20.1751 23.9486 20.4468 23.9486H23.8287C24.0949 23.9486 24.3166 23.7324 24.3166 23.4609V8.74085C24.2057 8.64664 24.1226 8.56351 24.0616 8.50808L23.9895 8.43604Z" fill="#E2E2E2"/>
<path d="M26.7561 0.297713C26.5953 0.125906 26.3513 0.0372314 26.0409 0.0372314C26.0131 0.0372314 25.9799 0.0372314 25.9522 0.0372314C24.3776 0.10928 22.8086 0.18687 21.2341 0.258918C21.0234 0.270003 20.7351 0.281087 20.5078 0.508316C20.4357 0.580364 20.3803 0.663496 20.3359 0.763256C20.1031 1.26759 20.4302 1.59458 20.5854 1.74976L20.9791 2.1488C21.2507 2.42591 21.5279 2.70301 21.8051 2.97458L12.2914 12.4905L8.01684 8.21747C7.76181 7.96253 7.41807 7.81844 7.05216 7.81844C6.68624 7.81844 6.34805 7.96253 6.09302 8.21747L0.399179 13.9037C-0.13306 14.4358 -0.13306 15.2948 0.399179 15.8269L0.654209 16.0818C0.90924 16.3368 1.25298 16.4808 1.61889 16.4808C1.9848 16.4808 2.323 16.3368 2.57803 16.0818L7.05216 11.6093L11.3267 15.8823C11.5817 16.1372 11.9255 16.2813 12.2914 16.2813C12.6573 16.2813 12.9955 16.1372 13.2561 15.8823L23.9895 5.15265L25.2037 6.36085C25.3478 6.50494 25.5474 6.70446 25.8524 6.70446C25.9799 6.70446 26.1074 6.67121 26.2405 6.59916C26.3292 6.54928 26.4068 6.49386 26.4733 6.42735C26.7117 6.18904 26.7561 5.88422 26.7671 5.64591C26.8115 4.62615 26.8614 3.60639 26.9113 2.58109L26.9834 1.04591C27 0.72446 26.9279 0.475063 26.7561 0.297713Z" fill="#04C0B2"/>
</svg>
