<svg xmlns="http://www.w3.org/2000/svg" fill="none" viewBox="0 0 40 40">
    <g fill="#04C0B2" clip-path="url(#clip0)">
        <path d="M31.25 27.5h-1.2501V20c0-5.514-4.486-10.00003-9.9999-10.00003C14.486 9.99997 9.99999 14.4861 9.99999 20v7.5H8.74996c-.6909 0-1.25002.559-1.25002 1.25S8.05906 30 8.74996 30H12.5v8.75c0 .6909.5591 1.25 1.25 1.25S15 39.4409 15 38.75v-8.7501h10v8.75c0 .6909.559 1.25 1.25 1.25s1.25-.5591 1.25-1.25v-8.75h3.7501c.6909 0 1.25-.559 1.25-1.25S31.9409 27.5 31.25 27.5zm-18.75 0V20c0-4.1358 3.3642-7.5001 7.5-7.5001 4.1357 0 7.5 3.3643 7.5 7.5001v7.5h-15zM36.0531 19.3142h5v2.4999h-5v-2.4999zM0 19.3142h5.00003v2.4999H0v-2.4999zM18.75 0h2.5v5.00003h-2.5V0zM4.97366 6.74091l1.76733-1.76733 3.53461 3.53465-1.76729 1.76737-3.53465-3.53469zM29.7184 8.50833l3.5346-3.53465 1.7674 1.76733-3.5347 3.53469-1.7673-1.76737z"/>
    </g>
    <defs>
        <clipPath id="clip0">
            <path fill="#fff" d="M0 0h40v40H0z"/>
        </clipPath>
    </defs>
</svg>