<svg width="51" height="22" viewBox="0 0 51 22" fill="none" xmlns="http://www.w3.org/2000/svg">
<path d="M11.9 22H39.1C45.662 22 51 17.0657 51 11C51 4.93429 45.662 0 39.1 0H11.9C5.338 0 0 4.93429 0 11C0 17.0657 5.338 22 11.9 22ZM11.9 1.57143H39.1C44.7245 1.57143 49.3 5.80093 49.3 11C49.3 16.1991 44.7245 20.4286 39.1 20.4286H11.9C6.27555 20.4286 1.7 16.1991 1.7 11C1.7 5.80093 6.27555 1.57143 11.9 1.57143Z" fill="#04C0B2"/>
<path d="M39.1 18.8572C43.7869 18.8572 47.6 15.3325 47.6 11C47.6 6.6676 43.7869 3.14288 39.1 3.14288C34.4131 3.14288 30.6 6.6676 30.6 11C30.6 15.3325 34.4131 18.8572 39.1 18.8572ZM39.1 4.71431C42.8493 4.71431 45.9 7.53424 45.9 11C45.9 14.4658 42.8493 17.2857 39.1 17.2857C35.3506 17.2857 32.3 14.4658 32.3 11C32.3 7.53424 35.3506 4.71431 39.1 4.71431Z" fill="#04C0B2"/>
</svg>
