<svg fill="none" xmlns="http://www.w3.org/2000/svg" viewBox="0 0 40 40">
    <path fill-rule="evenodd" clip-rule="evenodd" d="M8.33336 0H31.6666C33.5042 0 35 1.49492 35 3.33336V36.6666C35 38.5051 33.5042 40 31.6667 40H8.33336C6.49578 40 5 38.5051 5 36.6667V3.33336C5 1.49492 6.49578 0 8.33336 0zM31.375 38c.8966 0 1.625-.7343 1.625-1.6363V3.63634C33 2.73429 32.2716 2 31.375 2H8.62498C7.72843 2 7 2.73429 7 3.63634V36.3637C7 37.2657 7.72836 38 8.62498 38H31.375z" fill="#04C0B2"/>
    <path fill-rule="evenodd" clip-rule="evenodd" d="M25 10.8334v8.1982l1.6244 4.8714c.0863.2596.039.5452-.1237.7633l-2.5 3.3334c-.1579.21-.4053.3337-.6673.3337h-7.5c-.4607 0-.8334-.3728-.8334-.8334V10.8334c0-.4607.3727-.8334.8334-.8334h8.3332c.4607 0 .8334.3727.8334.8334zm-6.1516 12.5h5.828L23.5655 20H17.181l1.6674 3.3334zm-2.1818-.6375l.6918 1.3829-.6918.9218v-2.3047zm0-11.0293h6.6667v6.6667h-6.6667v-6.6667zm.8338 15h5.4162L24.1663 25h-5.4159l-1.25 1.6666z" fill="#04C0B2"/>
</svg>
